# xmcd
#
# Track frame offsets:
#	182
#	14270
#	24860
#	40332
#	54395
#	67665
#	79280
#	100205
#	109545
#	133162
#	146167
#	158092
#	170670
#	185782
#	200470
#	214840
#	224490
#	235797
#	242292
#	255380
#	263392
#	275032
#	288310
#	302947
#	319335
#
# Disc length: 4450 seconds
#
# Revision: 1
# Processed by: cddbd v1.4PL0 Copyright (c) Steve Scherf et al.
# Submitted via: audiograbber 1.81.03
#
DISCID=69116019
DTITLE=Various Artist - Country Top 100 Part 4
DYEAR=1996
DGENRE=Country
TTITLE0=The Bellamy Brothers - If I Said You Have A Beautiful Body
TTITLE1=Patti Page - How Much Is That Doggie In The Window
TTITLE2=Willie Nelson - You Are Always On My Mind
TTITLE3=Glenn Campbell - Rhinestone Cowboy
TTITLE4=David Houstone - Almoust Persuaded
TTITLE5=Major Dundee and Toni Willé - Raised On Love
TTITLE6=Lynyrd Skynyrd - Made In The Shade
TTITLE7=Wynn Stewart - Love's Gonna Happen To Me
TTITLE8=Don McLean - Vincent
TTITLE9=Lynn Anderson - Top Of The World
TTITLE10=Billie Joe Spears - What Have They Done To My Song Ma
TTITLE11=Claude King - Wolverton Mountain
TTITLE12=Kenny Rogers - For The Good Times
TTITLE13=Anny Schilder - Apple Jack
TTITLE14=Boxcar Willie - My Heart's Deep In The Heart Of Texas
TTITLE15=Johnny Cash - Ballad Of A Teenage Queen
TTITLE16=Tammy Wynette - Stand By Your Man
TTITLE17=Waylon Jennings - It So Easy
TTITLE18=Patsy Cline - I Fall To Pieces
TTITLE19=Mills Brothers - Mr. Sandman
TTITLE20=Skeeter Davis - The End Of The World
TTITLE21=Loretta Lynn - Coalminers Daughter
TTITLE22=Anne Murray - Both Sides Now
TTITLE23=Trisha Yearwood - Here Comes Temptation
TTITLE24=John Denver - Take Me Home Country Roads
EXTD=
EXTT0=
EXTT1=
EXTT2=
EXTT3=
EXTT4=
EXTT5=
EXTT6=
EXTT7=
EXTT8=
EXTT9=
EXTT10=
EXTT11=
EXTT12=
EXTT13=
EXTT14=
EXTT15=
EXTT16=
EXTT17=
EXTT18=
EXTT19=
EXTT20=
EXTT21=
EXTT22=
EXTT23=
EXTT24=
PLAYORDER=
